<?xml version="1.0" encoding="utf-8"?>
<!-- Generator: Adobe Illustrator 16.0.0, SVG Export Plug-In . SVG Version: 6.00 Build 0)  -->
<!DOCTYPE svg PUBLIC "-//W3C//DTD SVG 1.1//EN" "http://www.w3.org/Graphics/SVG/1.1/DTD/svg11.dtd">
<svg version="1.1" xmlns="http://www.w3.org/2000/svg" xmlns:xlink="http://www.w3.org/1999/xlink" x="0px" y="0px" width="1920px"
	 height="1080px" viewBox="0 0 1920 1080" enable-background="new 0 0 1920 1080" xml:space="preserve">
<g id="Background">
	<rect width="1920" height="1080"/>
</g>
<g id="Layer_4">
	
		<line fill="none" stroke="#2E3192" stroke-width="13" stroke-linejoin="bevel" stroke-miterlimit="10" x1="0" y1="375" x2="1920" y2="375"/>
	<polyline fill="none" stroke="#2E3192" stroke-width="13" stroke-linejoin="bevel" stroke-miterlimit="10" points="0,480.094 
		963.087,480.094 963.087,487.593 0,1080 	"/>
	<polyline fill="none" stroke="#2E3192" stroke-width="13" stroke-linejoin="bevel" stroke-miterlimit="10" points="
		637.607,1087.563 1108.58,487.593 1920,487.593 	"/>
	
		<radialGradient id="SVGID_1_" cx="1270.5752" cy="579.0889" r="646.4734" gradientTransform="matrix(0.9995 -0.0326 0.0048 0.1465 -2.0942 535.7157)" gradientUnits="userSpaceOnUse">
		<stop  offset="0" style="stop-color:#F3745A"/>
		<stop  offset="1" style="stop-color:#ED1C24"/>
	</radialGradient>
	<path fill="url(#SVGID_1_)" stroke="#941A1D" stroke-width="6" stroke-miterlimit="10" d="M1920,665.563h-674.173
		c-31.064,0-56.247-27.533-56.247-61.497c0-33.963,25.183-61.496,56.247-61.496H1920"/>
	
		<radialGradient id="SVGID_2_" cx="1270.5752" cy="717.5791" r="646.4734" gradientTransform="matrix(0.9995 -0.0326 0.0048 0.1465 -2.7571 653.9141)" gradientUnits="userSpaceOnUse">
		<stop  offset="0" style="stop-color:#F3745A"/>
		<stop  offset="1" style="stop-color:#ED1C24"/>
	</radialGradient>
	<path fill="url(#SVGID_2_)" stroke="#941A1D" stroke-width="6" stroke-miterlimit="10" d="M1920,804.053h-674.173
		c-31.064,0-56.247-27.533-56.247-61.496s25.183-61.496,56.247-61.496H1920"/>
	
		<radialGradient id="SVGID_3_" cx="1270.5752" cy="856.0693" r="646.4736" gradientTransform="matrix(0.9995 -0.0326 0.0048 0.1465 -3.4197 772.1125)" gradientUnits="userSpaceOnUse">
		<stop  offset="0" style="stop-color:#F3745A"/>
		<stop  offset="1" style="stop-color:#ED1C24"/>
	</radialGradient>
	<path fill="url(#SVGID_3_)" stroke="#941A1D" stroke-width="6" stroke-miterlimit="10" d="M1920,942.544h-674.173
		c-31.064,0-56.247-27.533-56.247-61.497c0-33.963,25.183-61.496,56.247-61.496H1920"/>
	
		<text transform="matrix(1 0 0 1 1242.0762 614.417)" fill="#FFFFFF" stroke="#000000" stroke-miterlimit="10" font-family="'Arial-BoldMT'" font-size="43">Single Player Game</text>
	
		<text transform="matrix(1 0 0 1 1242.0762 752.9082)" fill="#FFFFFF" stroke="#000000" stroke-miterlimit="10" font-family="'Arial-BoldMT'" font-size="43">Multiplayer Game</text>
	
		<text transform="matrix(1 0 0 1 1242.0762 891.3975)" fill="#FFFFFF" stroke="#000000" stroke-miterlimit="10" font-family="'Arial-BoldMT'" font-size="43">Options</text>
</g>
<g id="Title">
	<g>
		
			<image overflow="visible" width="2012" height="417" xlink:href="10DB777.png"  transform="matrix(0.24 0 0 0.24 1074.084 235.9595)">
		</image>
		<g>
			
				<text transform="matrix(1 0 0 1 1087.084 300.4341)" fill="#FFFFFF" stroke="#2E3192" stroke-width="2" stroke-miterlimit="10" font-family="'Arial-BoldMT'" font-size="60">Network Edition</text>
		</g>
	</g>
	<text transform="matrix(1 0 0 1 779.9126 1035.5654)"><tspan x="0" y="0" fill="#939598" font-family="'ArialMT'" font-size="30">Created 1980 NAMCO Ltd.</tspan><tspan x="-65.859" y="36" fill="#939598" font-family="'ArialMT'" font-size="30">Recreated 2014 Drag ‘N’ Dream LLC</tspan></text>
	<g>
		<text transform="matrix(1 0 0 1 352.9736 213.6719)" fill="#00AEEF" font-family="'Arial-Black'" font-size="250">PACMAN</text>
		<text transform="matrix(1 0 0 1 372.9736 233.6719)" fill="#ED1C24" font-family="'Arial-Black'" font-size="250">PACMAN</text>
		<text transform="matrix(1 0 0 1 362.9736 223.6719)" fill="#FFF200" font-family="'Arial-Black'" font-size="250">PACMAN</text>
		
			<text transform="matrix(1 0 0 1 362.9736 223.6719)" fill="none" stroke="#000000" stroke-width="4" font-family="'Arial-Black'" font-size="250">PACMAN</text>
	</g>
</g>
<g id="Aspects">
	<rect x="150" fill="none" stroke="#ED1C24" stroke-width="2" stroke-miterlimit="10" width="1620" height="1080"/>
	<rect x="240" fill="none" stroke="#2E3192" stroke-width="2" stroke-miterlimit="10" width="1440" height="1080"/>
	<g>
		<g opacity="0.75">
			<text transform="matrix(1 0 0 1 152 1115.0625)"><tspan x="0" y="0" fill="#191919" font-family="'MyriadPro-Bold'" font-size="24">RED (150px)</tspan><tspan x="0" y="28.799" fill="#191919" font-family="'MyriadPro-Bold'" font-size="24">ASPECT RATIO: 1.5</tspan><tspan x="0" y="57.6" fill="#191919" font-family="'MyriadPro-Bold'" font-size="24">Many Cellphones/Older Monitors</tspan></text>
		</g>
		<g>
			<text transform="matrix(1 0 0 1 150 1113.0625)"><tspan x="0" y="0" fill="#ED1C24" font-family="'MyriadPro-Bold'" font-size="24">RED (150px)</tspan><tspan x="0" y="28.799" fill="#ED1C24" font-family="'MyriadPro-Bold'" font-size="24">ASPECT RATIO: 1.5</tspan><tspan x="0" y="57.6" fill="#ED1C24" font-family="'MyriadPro-Bold'" font-size="24">Many Cellphones/Older Monitors</tspan></text>
		</g>
	</g>
	<g>
		<g opacity="0.75">
			<text transform="matrix(1 0 0 1 333.6221 -62.3794)"><tspan x="0" y="0" fill="#191919" font-family="'MyriadPro-Bold'" font-size="24">BLUE (240px)</tspan><tspan x="0" y="28.8" fill="#191919" font-family="'MyriadPro-Bold'" font-size="24">ASPECT RATIO: 4:3</tspan><tspan x="0" y="57.6" fill="#191919" font-family="'MyriadPro-Bold'" font-size="24">Standard Aspect Ratio</tspan></text>
		</g>
		<g>
			<text transform="matrix(1 0 0 1 331.6221 -64.3794)"><tspan x="0" y="0" fill="#2E3192" font-family="'MyriadPro-Bold'" font-size="24">BLUE (240px)</tspan><tspan x="0" y="28.8" fill="#2E3192" font-family="'MyriadPro-Bold'" font-size="24">ASPECT RATIO: 4:3</tspan><tspan x="0" y="57.6" fill="#2E3192" font-family="'MyriadPro-Bold'" font-size="24">Standard Aspect Ratio</tspan></text>
		</g>
	</g>
	<g>
		<g opacity="0.75">
			<text transform="matrix(1 0 0 1 2 -62.3794)"><tspan x="0" y="0" fill="#191919" font-family="'MyriadPro-Bold'" font-size="24">MAIN</tspan><tspan x="0" y="28.8" fill="#191919" font-family="'MyriadPro-Bold'" font-size="24">ASPECT RATIO: 16:9</tspan><tspan x="0" y="57.6" fill="#191919" font-family="'MyriadPro-Bold'" font-size="24">Widescreen, Most Popular</tspan></text>
		</g>
		<g>
			<text transform="matrix(1 0 0 1 0 -64.3794)"><tspan x="0" y="0" font-family="'MyriadPro-Bold'" font-size="24">MAIN</tspan><tspan x="0" y="28.8" font-family="'MyriadPro-Bold'" font-size="24">ASPECT RATIO: 16:9</tspan><tspan x="0" y="57.6" font-family="'MyriadPro-Bold'" font-size="24">Widescreen, Most Popular</tspan></text>
		</g>
	</g>
</g>
</svg>
